<mxfile host="app.diagrams.net" modified="2024-04-14T02:02:05.312Z" agent="Mozilla/5.0 (Macintosh; Intel Mac OS X 10_15_7) AppleWebKit/537.36 (KHTML, like Gecko) Chrome/123.0.0.0 Safari/537.36" etag="3PNFTAGVL4UOS02K1Qr-" version="24.2.3" type="github">
  <diagram name="第 1 页" id="3shaYbjBemekK6ONPjr0">
    <mxGraphModel dx="1405" dy="654" grid="1" gridSize="10" guides="1" tooltips="1" connect="1" arrows="1" fold="1" page="1" pageScale="1" pageWidth="1169" pageHeight="1654" math="0" shadow="0">
      <root>
        <mxCell id="0" />
        <mxCell id="1" parent="0" />
        <mxCell id="Ki0V0-zp6VdtDxzTJ5nI-7" value="" style="edgeStyle=orthogonalEdgeStyle;rounded=0;orthogonalLoop=1;jettySize=auto;html=1;" edge="1" parent="1" source="Ki0V0-zp6VdtDxzTJ5nI-1" target="Ki0V0-zp6VdtDxzTJ5nI-6">
          <mxGeometry relative="1" as="geometry" />
        </mxCell>
        <mxCell id="Ki0V0-zp6VdtDxzTJ5nI-1" value="接入告警源" style="rounded=1;whiteSpace=wrap;html=1;" vertex="1" parent="1">
          <mxGeometry x="130" y="130" width="80" height="40" as="geometry" />
        </mxCell>
        <mxCell id="Ki0V0-zp6VdtDxzTJ5nI-4" value="" style="edgeStyle=orthogonalEdgeStyle;rounded=0;orthogonalLoop=1;jettySize=auto;html=1;" edge="1" parent="1" source="Ki0V0-zp6VdtDxzTJ5nI-3" target="Ki0V0-zp6VdtDxzTJ5nI-1">
          <mxGeometry relative="1" as="geometry" />
        </mxCell>
        <mxCell id="Ki0V0-zp6VdtDxzTJ5nI-3" value="安装监控服务" style="rounded=1;whiteSpace=wrap;html=1;" vertex="1" parent="1">
          <mxGeometry x="130" y="60" width="80" height="40" as="geometry" />
        </mxCell>
        <mxCell id="Ki0V0-zp6VdtDxzTJ5nI-9" value="" style="edgeStyle=orthogonalEdgeStyle;rounded=0;orthogonalLoop=1;jettySize=auto;html=1;" edge="1" parent="1" source="Ki0V0-zp6VdtDxzTJ5nI-6" target="Ki0V0-zp6VdtDxzTJ5nI-8">
          <mxGeometry relative="1" as="geometry" />
        </mxCell>
        <mxCell id="Ki0V0-zp6VdtDxzTJ5nI-6" value="原始告警(原生)" style="ellipse;whiteSpace=wrap;html=1;" vertex="1" parent="1">
          <mxGeometry x="120" y="200" width="100" height="40" as="geometry" />
        </mxCell>
        <mxCell id="Ki0V0-zp6VdtDxzTJ5nI-11" value="告警字段统一" style="edgeStyle=orthogonalEdgeStyle;rounded=0;orthogonalLoop=1;jettySize=auto;html=1;" edge="1" parent="1" source="Ki0V0-zp6VdtDxzTJ5nI-8" target="Ki0V0-zp6VdtDxzTJ5nI-10">
          <mxGeometry relative="1" as="geometry" />
        </mxCell>
        <mxCell id="Ki0V0-zp6VdtDxzTJ5nI-13" value="" style="edgeStyle=orthogonalEdgeStyle;rounded=0;orthogonalLoop=1;jettySize=auto;html=1;" edge="1" parent="1" source="Ki0V0-zp6VdtDxzTJ5nI-8" target="Ki0V0-zp6VdtDxzTJ5nI-10">
          <mxGeometry relative="1" as="geometry" />
        </mxCell>
        <mxCell id="Ki0V0-zp6VdtDxzTJ5nI-8" value="告警格式化" style="rounded=1;whiteSpace=wrap;html=1;" vertex="1" parent="1">
          <mxGeometry x="130" y="270" width="80" height="40" as="geometry" />
        </mxCell>
        <mxCell id="Ki0V0-zp6VdtDxzTJ5nI-16" value="" style="edgeStyle=orthogonalEdgeStyle;rounded=0;orthogonalLoop=1;jettySize=auto;html=1;" edge="1" parent="1" source="Ki0V0-zp6VdtDxzTJ5nI-10" target="Ki0V0-zp6VdtDxzTJ5nI-15">
          <mxGeometry relative="1" as="geometry" />
        </mxCell>
        <mxCell id="Ki0V0-zp6VdtDxzTJ5nI-18" value="" style="edgeStyle=orthogonalEdgeStyle;rounded=0;orthogonalLoop=1;jettySize=auto;html=1;" edge="1" parent="1" source="Ki0V0-zp6VdtDxzTJ5nI-10" target="Ki0V0-zp6VdtDxzTJ5nI-17">
          <mxGeometry relative="1" as="geometry" />
        </mxCell>
        <mxCell id="Ki0V0-zp6VdtDxzTJ5nI-10" value="原始告警" style="ellipse;whiteSpace=wrap;html=1;" vertex="1" parent="1">
          <mxGeometry x="120" y="360" width="100" height="40" as="geometry" />
        </mxCell>
        <mxCell id="Ki0V0-zp6VdtDxzTJ5nI-15" value="原始告警入库" style="rounded=1;whiteSpace=wrap;html=1;" vertex="1" parent="1">
          <mxGeometry x="280" y="360" width="80" height="40" as="geometry" />
        </mxCell>
        <mxCell id="Ki0V0-zp6VdtDxzTJ5nI-21" value="" style="edgeStyle=orthogonalEdgeStyle;rounded=0;orthogonalLoop=1;jettySize=auto;html=1;" edge="1" parent="1" source="Ki0V0-zp6VdtDxzTJ5nI-17" target="Ki0V0-zp6VdtDxzTJ5nI-20">
          <mxGeometry relative="1" as="geometry" />
        </mxCell>
        <mxCell id="Ki0V0-zp6VdtDxzTJ5nI-17" value="告警对象识别" style="rounded=1;whiteSpace=wrap;html=1;" vertex="1" parent="1">
          <mxGeometry x="130" y="440" width="80" height="40" as="geometry" />
        </mxCell>
        <mxCell id="Ki0V0-zp6VdtDxzTJ5nI-23" value="" style="edgeStyle=orthogonalEdgeStyle;rounded=0;orthogonalLoop=1;jettySize=auto;html=1;" edge="1" parent="1" source="Ki0V0-zp6VdtDxzTJ5nI-20" target="Ki0V0-zp6VdtDxzTJ5nI-22">
          <mxGeometry relative="1" as="geometry" />
        </mxCell>
        <mxCell id="Ki0V0-zp6VdtDxzTJ5nI-20" value="告警抑制(降噪)" style="rounded=1;whiteSpace=wrap;html=1;" vertex="1" parent="1">
          <mxGeometry x="260" y="440" width="90" height="40" as="geometry" />
        </mxCell>
        <mxCell id="Ki0V0-zp6VdtDxzTJ5nI-25" value="" style="edgeStyle=orthogonalEdgeStyle;rounded=0;orthogonalLoop=1;jettySize=auto;html=1;" edge="1" parent="1" source="Ki0V0-zp6VdtDxzTJ5nI-22" target="Ki0V0-zp6VdtDxzTJ5nI-24">
          <mxGeometry relative="1" as="geometry" />
        </mxCell>
        <mxCell id="Ki0V0-zp6VdtDxzTJ5nI-22" value="告警丰富(可选)" style="rounded=1;whiteSpace=wrap;html=1;" vertex="1" parent="1">
          <mxGeometry x="400" y="440" width="90" height="40" as="geometry" />
        </mxCell>
        <mxCell id="Ki0V0-zp6VdtDxzTJ5nI-27" value="" style="edgeStyle=orthogonalEdgeStyle;rounded=0;orthogonalLoop=1;jettySize=auto;html=1;" edge="1" parent="1" source="Ki0V0-zp6VdtDxzTJ5nI-24" target="Ki0V0-zp6VdtDxzTJ5nI-26">
          <mxGeometry relative="1" as="geometry" />
        </mxCell>
        <mxCell id="Ki0V0-zp6VdtDxzTJ5nI-29" value="" style="edgeStyle=orthogonalEdgeStyle;rounded=0;orthogonalLoop=1;jettySize=auto;html=1;" edge="1" parent="1" source="Ki0V0-zp6VdtDxzTJ5nI-24" target="Ki0V0-zp6VdtDxzTJ5nI-28">
          <mxGeometry relative="1" as="geometry" />
        </mxCell>
        <mxCell id="Ki0V0-zp6VdtDxzTJ5nI-24" value="有效告警" style="ellipse;whiteSpace=wrap;html=1;" vertex="1" parent="1">
          <mxGeometry x="535" y="440" width="100" height="40" as="geometry" />
        </mxCell>
        <mxCell id="Ki0V0-zp6VdtDxzTJ5nI-26" value="有效告警入库" style="rounded=1;whiteSpace=wrap;html=1;" vertex="1" parent="1">
          <mxGeometry x="545" y="510" width="80" height="40" as="geometry" />
        </mxCell>
        <mxCell id="Ki0V0-zp6VdtDxzTJ5nI-28" value="告警墙" style="rounded=1;whiteSpace=wrap;html=1;" vertex="1" parent="1">
          <mxGeometry x="680" y="440" width="90" height="40" as="geometry" />
        </mxCell>
      </root>
    </mxGraphModel>
  </diagram>
</mxfile>
